<mxfile host="www.draw.io" modified="2020-01-17T07:28:47.077Z" agent="Mozilla/5.0 (Macintosh; Intel Mac OS X 10_14_6) AppleWebKit/537.36 (KHTML, like Gecko) Chrome/79.0.3945.117 Safari/537.36" etag="xrKB6qsLlQIUwIFvZcFS" version="12.5.5" type="github">
  <diagram id="Fj5yMq61nNx-PJxX2ZFD" name="Page-1">
    <mxGraphModel dx="815" dy="521" grid="1" gridSize="10" guides="1" tooltips="1" connect="1" arrows="1" fold="1" page="1" pageScale="1" pageWidth="1169" pageHeight="827" math="0" shadow="0">
      <root>
        <mxCell id="0"/>
        <mxCell id="1" parent="0"/>
        <mxCell id="VZlL58tMN_GmP7dRH0y9-16" style="edgeStyle=orthogonalEdgeStyle;curved=1;orthogonalLoop=1;jettySize=auto;html=1;entryX=0.25;entryY=1;entryDx=0;entryDy=0;exitX=1;exitY=1;exitDx=0;exitDy=0;" parent="1" source="VZlL58tMN_GmP7dRH0y9-1" target="VZlL58tMN_GmP7dRH0y9-3" edge="1">
          <mxGeometry relative="1" as="geometry">
            <Array as="points">
              <mxPoint x="200" y="270"/>
              <mxPoint x="380" y="270"/>
            </Array>
          </mxGeometry>
        </mxCell>
        <mxCell id="VZlL58tMN_GmP7dRH0y9-22" style="edgeStyle=orthogonalEdgeStyle;curved=1;orthogonalLoop=1;jettySize=auto;html=1;entryX=0;entryY=1;entryDx=0;entryDy=0;exitX=0.625;exitY=0;exitDx=0;exitDy=0;exitPerimeter=0;" parent="1" source="VZlL58tMN_GmP7dRH0y9-1" target="VZlL58tMN_GmP7dRH0y9-8" edge="1">
          <mxGeometry relative="1" as="geometry"/>
        </mxCell>
        <mxCell id="VZlL58tMN_GmP7dRH0y9-1" value="&lt;font style=&quot;font-size: 15px&quot;&gt;ecNode&lt;/font&gt;" style="rounded=1;whiteSpace=wrap;html=1;" parent="1" vertex="1">
          <mxGeometry x="120" y="190" width="80" height="50" as="geometry"/>
        </mxCell>
        <mxCell id="VZlL58tMN_GmP7dRH0y9-2" value="&lt;font style=&quot;font-size: 15px&quot;&gt;ecNode&lt;/font&gt;" style="rounded=1;whiteSpace=wrap;html=1;" parent="1" vertex="1">
          <mxGeometry x="240" y="190" width="80" height="50" as="geometry"/>
        </mxCell>
        <mxCell id="VZlL58tMN_GmP7dRH0y9-18" style="edgeStyle=orthogonalEdgeStyle;curved=1;orthogonalLoop=1;jettySize=auto;html=1;entryX=1;entryY=0;entryDx=0;entryDy=0;exitX=0.25;exitY=0;exitDx=0;exitDy=0;" parent="1" source="VZlL58tMN_GmP7dRH0y9-3" target="VZlL58tMN_GmP7dRH0y9-1" edge="1">
          <mxGeometry relative="1" as="geometry">
            <Array as="points">
              <mxPoint x="380" y="160"/>
              <mxPoint x="200" y="160"/>
            </Array>
          </mxGeometry>
        </mxCell>
        <mxCell id="VZlL58tMN_GmP7dRH0y9-3" value="&lt;font style=&quot;font-size: 15px&quot;&gt;ecNode&lt;/font&gt;" style="rounded=1;whiteSpace=wrap;html=1;" parent="1" vertex="1">
          <mxGeometry x="360" y="190" width="80" height="50" as="geometry"/>
        </mxCell>
        <mxCell id="VZlL58tMN_GmP7dRH0y9-4" value="&lt;font style=&quot;font-size: 15px&quot;&gt;ecNode&lt;/font&gt;" style="rounded=1;whiteSpace=wrap;html=1;" parent="1" vertex="1">
          <mxGeometry x="520" y="190" width="80" height="50" as="geometry"/>
        </mxCell>
        <mxCell id="VZlL58tMN_GmP7dRH0y9-5" value="&lt;font style=&quot;font-size: 16px&quot;&gt;......&lt;/font&gt;" style="text;html=1;strokeColor=none;fillColor=none;align=center;verticalAlign=middle;whiteSpace=wrap;rounded=0;" parent="1" vertex="1">
          <mxGeometry x="460" y="202.5" width="50" height="25" as="geometry"/>
        </mxCell>
        <mxCell id="VZlL58tMN_GmP7dRH0y9-10" style="edgeStyle=orthogonalEdgeStyle;orthogonalLoop=1;jettySize=auto;html=1;exitX=0;exitY=0.5;exitDx=0;exitDy=0;entryX=0.5;entryY=0;entryDx=0;entryDy=0;curved=1;" parent="1" source="VZlL58tMN_GmP7dRH0y9-8" target="VZlL58tMN_GmP7dRH0y9-1" edge="1">
          <mxGeometry relative="1" as="geometry">
            <Array as="points">
              <mxPoint x="140" y="65"/>
              <mxPoint x="140" y="190"/>
            </Array>
          </mxGeometry>
        </mxCell>
        <mxCell id="VZlL58tMN_GmP7dRH0y9-8" value="&lt;font style=&quot;font-size: 15px&quot;&gt;client&lt;/font&gt;" style="rounded=1;whiteSpace=wrap;html=1;" parent="1" vertex="1">
          <mxGeometry x="240" y="40" width="80" height="50" as="geometry"/>
        </mxCell>
        <mxCell id="VZlL58tMN_GmP7dRH0y9-13" value="1" style="ellipse;whiteSpace=wrap;html=1;aspect=fixed;" parent="1" vertex="1">
          <mxGeometry x="130" y="90" width="20" height="20" as="geometry"/>
        </mxCell>
        <mxCell id="VZlL58tMN_GmP7dRH0y9-17" value="2" style="ellipse;whiteSpace=wrap;html=1;aspect=fixed;" parent="1" vertex="1">
          <mxGeometry x="280" y="270" width="20" height="20" as="geometry"/>
        </mxCell>
        <mxCell id="VZlL58tMN_GmP7dRH0y9-19" value="3" style="ellipse;whiteSpace=wrap;html=1;aspect=fixed;" parent="1" vertex="1">
          <mxGeometry x="280" y="140" width="20" height="20" as="geometry"/>
        </mxCell>
        <mxCell id="VZlL58tMN_GmP7dRH0y9-23" value="4" style="ellipse;whiteSpace=wrap;html=1;aspect=fixed;" parent="1" vertex="1">
          <mxGeometry x="200" y="120" width="20" height="20" as="geometry"/>
        </mxCell>
        <mxCell id="J1dhXGRBBlb_0tiMYPRD-3" value="" style="shape=curlyBracket;whiteSpace=wrap;html=1;rounded=1;rotation=-90;" vertex="1" parent="1">
          <mxGeometry x="350" y="80" width="20" height="480" as="geometry"/>
        </mxCell>
        <mxCell id="J1dhXGRBBlb_0tiMYPRD-4" value="&lt;font style=&quot;font-size: 15px&quot;&gt;EC Partition&lt;/font&gt;" style="text;html=1;strokeColor=none;fillColor=none;align=center;verticalAlign=middle;whiteSpace=wrap;rounded=0;" vertex="1" parent="1">
          <mxGeometry x="315" y="340" width="90" height="20" as="geometry"/>
        </mxCell>
        <mxCell id="J1dhXGRBBlb_0tiMYPRD-5" value="1" style="ellipse;whiteSpace=wrap;html=1;aspect=fixed;" vertex="1" parent="1">
          <mxGeometry x="370" y="20" width="20" height="20" as="geometry"/>
        </mxCell>
        <mxCell id="J1dhXGRBBlb_0tiMYPRD-6" value="&lt;font style=&quot;font-size: 14px&quot;&gt;Read from an arbitrary node in a partition&lt;/font&gt;" style="text;html=1;strokeColor=none;fillColor=none;align=left;verticalAlign=middle;whiteSpace=wrap;rounded=0;" vertex="1" parent="1">
          <mxGeometry x="400" y="20" width="280" height="20" as="geometry"/>
        </mxCell>
        <mxCell id="J1dhXGRBBlb_0tiMYPRD-7" value="2" style="ellipse;whiteSpace=wrap;html=1;aspect=fixed;" vertex="1" parent="1">
          <mxGeometry x="370" y="50" width="20" height="20" as="geometry"/>
        </mxCell>
        <mxCell id="J1dhXGRBBlb_0tiMYPRD-8" value="&lt;font style=&quot;font-size: 14px&quot;&gt;Each ecNode can act as a proxy and transfers requests&lt;/font&gt;" style="text;html=1;strokeColor=none;fillColor=none;align=left;verticalAlign=middle;whiteSpace=wrap;rounded=0;" vertex="1" parent="1">
          <mxGeometry x="400" y="45" width="360" height="30" as="geometry"/>
        </mxCell>
        <mxCell id="J1dhXGRBBlb_0tiMYPRD-9" value="3" style="ellipse;whiteSpace=wrap;html=1;aspect=fixed;" vertex="1" parent="1">
          <mxGeometry x="370" y="80" width="20" height="20" as="geometry"/>
        </mxCell>
        <mxCell id="J1dhXGRBBlb_0tiMYPRD-10" value="&lt;font style=&quot;font-size: 14px&quot;&gt;Actual data block is returned to the proxy ecNode&lt;/font&gt;" style="text;html=1;strokeColor=none;fillColor=none;align=left;verticalAlign=middle;whiteSpace=wrap;rounded=0;" vertex="1" parent="1">
          <mxGeometry x="400" y="75" width="340" height="30" as="geometry"/>
        </mxCell>
        <mxCell id="J1dhXGRBBlb_0tiMYPRD-11" value="4" style="ellipse;whiteSpace=wrap;html=1;aspect=fixed;" vertex="1" parent="1">
          <mxGeometry x="370" y="110" width="20" height="20" as="geometry"/>
        </mxCell>
        <mxCell id="J1dhXGRBBlb_0tiMYPRD-12" value="&lt;font style=&quot;font-size: 14px&quot;&gt;The proxy ecNode responses to the client&lt;/font&gt;" style="text;html=1;strokeColor=none;fillColor=none;align=left;verticalAlign=middle;whiteSpace=wrap;rounded=0;" vertex="1" parent="1">
          <mxGeometry x="400" y="105" width="340" height="30" as="geometry"/>
        </mxCell>
      </root>
    </mxGraphModel>
  </diagram>
</mxfile>
